<?xml version="1.0" encoding="utf-8"?>
<!-- Generator: Adobe Illustrator 18.0.0, SVG Export Plug-In . SVG Version: 6.00 Build 0)  -->
<!DOCTYPE svg PUBLIC "-//W3C//DTD SVG 1.1//EN" "http://www.w3.org/Graphics/SVG/1.1/DTD/svg11.dtd">
<svg version="1.1" id="Layer_1" xmlns="http://www.w3.org/2000/svg" xmlns:xlink="http://www.w3.org/1999/xlink" x="0px" y="0px"
	 viewBox="0 0 238 61.4" enable-background="new 0 0 238 61.4" xml:space="preserve">
<path fill="#0B80C1" d="M63.4,16.7c2.1-0.4,5-0.6,9.2-0.6c4.2,0,7.2,0.8,9.2,2.4c1.9,1.5,3.2,4,3.2,6.9c0,3-0.9,5.5-2.7,7.1
	c-2.3,2.1-5.8,3.2-9.8,3.2c-0.9,0-1.7,0-2.3-0.2v10.8h-6.7V16.7z M70.1,30.2c0.6,0.1,1.3,0.2,2.3,0.2c3.6,0,5.8-1.8,5.8-4.8
	c0-2.8-1.9-4.4-5.3-4.4c-1.4,0-2.3,0.1-2.8,0.2V30.2z"/>
<path fill="#0B80C1" d="M86.4,31.6c0-3.2,0-5.3-0.2-7.2H92l0.3,4h0.2c1.1-3.2,3.7-4.5,5.9-4.5c0.6,0,0.9,0,1.4,0.1v6.4
	c-0.6-0.1-1.1-0.2-1.9-0.2c-2.5,0-4.2,1.3-4.6,3.4c-0.1,0.4-0.1,0.9-0.1,1.5v11h-6.8L86.4,31.6z"/>
<path fill="#0B80C1" d="M110.6,46.7c-6.4,0-11.2-4.2-11.2-11.2c0-7,4.6-11.5,11.6-11.5c6.6,0,11.1,4.6,11.1,11.2
	C122,43,116.4,46.7,110.6,46.7L110.6,46.7z M110.7,41.8c2.7,0,4.3-2.6,4.3-6.5c0-3.2-1.2-6.5-4.3-6.5c-3.2,0-4.4,3.3-4.4,6.5
	C106.3,39,107.8,41.8,110.7,41.8L110.7,41.8z"/>
<polygon fill="#0B80C1" points="130.6,16.3 130.6,27.8 141.7,27.8 141.7,16.3 148.5,16.3 148.5,46.2 141.7,46.2 141.7,33.7 
	130.6,33.7 130.6,46.2 123.8,46.2 123.8,16.3 "/>
<path fill="#0B80C1" d="M156.7,37.4c0.2,2.8,3,4.2,6.1,4.2c2.3,0,4.2-0.3,6-0.9l0.9,4.6c-2.2,0.9-4.9,1.4-7.9,1.4
	c-7.4,0-11.6-4.3-11.6-11.1c0-5.5,3.5-11.6,11-11.6c7,0,9.7,5.5,9.7,10.8c0,1.2-0.1,2.2-0.2,2.7L156.7,37.4z M164.6,32.8
	c0-1.6-0.7-4.4-3.8-4.4c-2.9,0-4,2.6-4.2,4.4H164.6z"/>
<path fill="#0B80C1" d="M191.2,41c0,2,0.1,4,0.4,5.2h-6.1l-0.4-2.2H185c-1.4,1.7-3.6,2.7-6.2,2.7c-4.4,0-7-3.2-7-6.7
	c0-5.6,5.1-8.3,12.7-8.3v-0.3c0-1.2-0.6-2.8-4-2.8c-2.2,0-4.6,0.8-6,1.6l-1.2-4.3c1.5-0.8,4.5-2,8.4-2c7.2,0,9.5,4.3,9.5,9.4V41z
	 M184.7,35.9c-3.6,0-6.3,0.8-6.3,3.4c0,1.7,1.2,2.6,2.7,2.6c1.6,0,3.1-1.1,3.5-2.5c0.1-0.4,0.1-0.8,0.1-1.2V35.9z"/>
<rect x="193.1" y="14.7" fill="#0B80C1" width="6.8" height="31.5"/>
<path fill="#0B80C1" d="M211,18.6v5.9h4.8v5H211v7.9c0,2.6,0.7,3.8,2.7,3.8c0.9,0,1.4,0,2-0.2l0,5.1c-0.8,0.3-2.5,0.6-4.4,0.6
	c-2.2,0-4-0.8-5.1-1.9c-1.2-1.3-1.9-3.4-1.9-6.4v-8.9h-2.9v-5h2.9v-4.1L211,18.6z"/>
<path fill="#0B80C1" d="M217.1,14.7h6.8v12.4h0.1c0.7-1,1.6-1.7,2.7-2.3c1-0.5,2.3-0.8,3.5-0.8c4.3,0,7.6,3,7.6,9.5v12.7H231v-12
	c0-2.8-1-4.8-3.5-4.8c-1.8,0-2.9,1.2-3.4,2.4c-0.2,0.4-0.2,1-0.2,1.5v12.9h-6.8V14.7z"/>
<polygon fill="#0B80C1" points="179.3,49.4 179.3,52.3 182.7,52.3 182.7,49.4 183.6,49.4 183.6,56.3 182.7,56.3 182.7,53 179.3,53 
	179.3,56.3 178.4,56.3 178.4,49.4 "/>
<path fill="#0B80C1" d="M187.1,56.4c-1.3,0-2.4-1-2.4-2.5c0-1.7,1.1-2.6,2.4-2.6c1.4,0,2.4,1,2.4,2.5
	C189.6,55.6,188.3,56.4,187.1,56.4L187.1,56.4z M187.1,55.7c0.9,0,1.5-0.8,1.5-1.9c0-0.8-0.4-1.9-1.5-1.9c-1,0-1.5,1-1.5,1.9
	C185.6,54.9,186.3,55.7,187.1,55.7L187.1,55.7z"/>
<path fill="#0B80C1" d="M190.7,52.7c0-0.5,0-0.9,0-1.3h0.8l0,0.8h0c0.3-0.5,0.7-0.9,1.6-0.9c0.7,0,1.2,0.4,1.4,1h0
	c0.2-0.3,0.4-0.5,0.6-0.6c0.3-0.2,0.6-0.3,1.1-0.3c0.7,0,1.6,0.4,1.6,2.1v2.9h-0.9v-2.8c0-1-0.4-1.5-1.1-1.5c-0.5,0-0.9,0.4-1.1,0.8
	c0,0.1-0.1,0.3-0.1,0.4v3.1h-0.9v-3c0-0.8-0.3-1.4-1-1.4c-0.5,0-1,0.4-1.1,0.9c0,0.1-0.1,0.3-0.1,0.4v3h-0.9V52.7z"/>
<path fill="#0B80C1" d="M199.7,54c0,1.2,0.8,1.7,1.7,1.7c0.6,0,1-0.1,1.4-0.2l0.2,0.6c-0.3,0.1-0.9,0.3-1.7,0.3
	c-1.5,0-2.4-1-2.4-2.5c0-1.5,0.9-2.7,2.3-2.7c1.6,0,2,1.4,2,2.3c0,0.2,0,0.3,0,0.4L199.7,54z M202.4,53.3c0-0.6-0.2-1.5-1.2-1.5
	c-0.9,0-1.3,0.8-1.4,1.5H202.4z"/>
<path fill="#0B80C1" d="M207.9,56.1c-0.2,0.1-0.8,0.3-1.4,0.3c-1.5,0-2.5-1-2.5-2.5c0-1.5,1-2.6,2.7-2.6c0.5,0,1,0.1,1.2,0.3
	l-0.2,0.7c-0.2-0.1-0.6-0.2-1-0.2c-1.1,0-1.7,0.8-1.7,1.9c0,1.1,0.7,1.8,1.7,1.8c0.5,0,0.8-0.1,1.1-0.2L207.9,56.1z"/>
<path fill="#0B80C1" d="M212.4,55.1c0,0.4,0,0.8,0.1,1.2h-0.8l-0.1-0.6h0c-0.3,0.4-0.8,0.7-1.5,0.7c-1,0-1.5-0.7-1.5-1.4
	c0-1.2,1.1-1.8,3-1.8V53c0-0.4-0.1-1.2-1.1-1.1c-0.5,0-0.9,0.1-1.3,0.4l-0.2-0.6c0.4-0.3,1-0.4,1.6-0.4c1.5,0,1.9,1,1.9,2V55.1z
	 M211.5,53.8c-1,0-2.1,0.2-2.1,1.1c0,0.6,0.4,0.9,0.8,0.9c0.7,0,1.1-0.4,1.2-0.8c0-0.1,0-0.2,0-0.3V53.8z"/>
<path fill="#0B80C1" d="M213.8,52.9c0-0.6,0-1.1,0-1.5h0.8l0,1h0c0.2-0.7,0.8-1.1,1.4-1.1c0.1,0,0.2,0,0.2,0v0.8c-0.1,0-0.2,0-0.3,0
	c-0.6,0-1.1,0.5-1.2,1.1c0,0.1,0,0.3,0,0.4v2.6h-0.9L213.8,52.9z"/>
<path fill="#0B80C1" d="M217.6,54c0,1.2,0.8,1.7,1.7,1.7c0.6,0,1-0.1,1.4-0.2l0.2,0.6c-0.3,0.1-0.9,0.3-1.7,0.3
	c-1.5,0-2.4-1-2.4-2.5c0-1.5,0.9-2.7,2.3-2.7c1.6,0,2,1.4,2,2.3c0,0.2,0,0.3,0,0.4L217.6,54z M220.3,53.3c0-0.6-0.2-1.5-1.2-1.5
	c-0.9,0-1.3,0.8-1.4,1.5H220.3z"/>
<rect x="224.4" y="49.4" fill="#0B80C1" width="0.9" height="6.9"/>
<path fill="#0B80C1" d="M226.8,52.7c0-0.5,0-0.9,0-1.3h0.8l0.1,0.8h0c0.2-0.5,0.8-0.9,1.6-0.9c0.7,0,1.7,0.4,1.7,2.1v2.9h-0.9v-2.8
	c0-0.8-0.3-1.5-1.1-1.5c-0.6,0-1,0.4-1.2,0.9c0,0.1-0.1,0.3-0.1,0.4v3h-0.9V52.7z"/>
<path fill="#0B80C1" d="M236,56.1c-0.2,0.1-0.8,0.3-1.4,0.3c-1.5,0-2.5-1-2.5-2.5c0-1.5,1-2.6,2.7-2.6c0.5,0,1,0.1,1.2,0.3l-0.2,0.7
	c-0.2-0.1-0.6-0.2-1-0.2c-1.1,0-1.7,0.8-1.7,1.9c0,1.1,0.7,1.8,1.7,1.8c0.5,0,0.8-0.1,1.1-0.2L236,56.1z"/>
<g>
	<defs>
		<rect id="SVGID_1_" y="-0.8" width="238" height="62.2"/>
	</defs>
	<clipPath id="SVGID_2_">
		<use xlink:href="#SVGID_1_"  overflow="visible"/>
	</clipPath>
	<path clip-path="url(#SVGID_2_)" fill="#0B80C1" d="M237.4,56.4c-0.3,0-0.6-0.3-0.6-0.6c0-0.4,0.3-0.6,0.6-0.6
		c0.4,0,0.6,0.3,0.6,0.6C238,56.1,237.8,56.4,237.4,56.4L237.4,56.4z"/>
	<path clip-path="url(#SVGID_2_)" fill="#0B80C1" d="M59,30.5c-2.8-12.8-18.2-20.4-34.4-16.9C8.5,17.2-2.4,30.5,0.4,43.3
		C3.1,55.5,17,62.9,32.2,60.6c-7.8-0.4-14.4-6.3-15.4-14.4c-1.1-9,5.3-17.1,14.3-18.2c9-1.1,17.1,5.3,18.2,14.3
		c0.7,6.1-1.9,11.7-6.5,15.1C54.4,52,61.4,41.1,59,30.5"/>
	<path clip-path="url(#SVGID_2_)" fill="#0B80C1" d="M58.3,31.3C55.6,18.9,40.6,11.5,24.9,15C9.1,18.4-1.4,31.3,1.3,43.8
		c2.6,11.8,16.1,19,30.8,16.8c-7.6-0.4-14-6.2-15-14C16.2,38,22.4,30,31.1,29c8.7-1.1,16.7,5.1,17.7,13.9c0.7,5.9-1.9,11.4-6.3,14.7
		C53.7,52.2,60.5,41.6,58.3,31.3"/>
</g>
<path fill="#0B80C1" d="M38,12c0.9,7.5-4.4,14.3-11.9,15.2c-7.5,0.9-14.3-4.4-15.2-11.9C9.9,7.8,15.2,1,22.7,0.1
	C30.3-0.8,37.1,4.5,38,12"/>
<g>
	<defs>
		<rect id="SVGID_3_" y="-0.8" width="238" height="62.2"/>
	</defs>
	<clipPath id="SVGID_4_">
		<use xlink:href="#SVGID_3_"  overflow="visible"/>
	</clipPath>
	<path clip-path="url(#SVGID_4_)" fill="none" stroke="#FFFDFD" stroke-width="1.636" d="M38,12c0.9,7.5-4.4,14.3-11.9,15.2
		c-7.5,0.9-14.3-4.4-15.2-11.9C9.9,7.8,15.2,1,22.7,0.1C30.3-0.8,37.1,4.5,38,12"/>
</g>
<path fill="#0B80C1" d="M32.1,34.7c0.9,7-4.1,13.3-11.1,14.2c-7,0.9-13.3-4.1-14.2-11.1c-0.9-7,4.1-13.3,11.1-14.2
	C24.9,22.7,31.2,27.7,32.1,34.7"/>
<path fill="none" stroke="#FFFDFD" stroke-width="1.636" d="M32.1,34.7c0.9,7-4.1,13.3-11.1,14.2c-7,0.9-13.3-4.1-14.2-11.1
	c-0.9-7,4.1-13.3,11.1-14.2C24.9,22.7,31.2,27.7,32.1,34.7"/>
<path fill="#0B80C1" d="M42,49.2c0.6,5.1-3,9.8-8.1,10.4c-5.1,0.6-9.8-3-10.4-8.1c-0.6-5.1,3-9.8,8.1-10.4
	C36.7,40.5,41.4,44.1,42,49.2"/>
<g>
	<defs>
		<rect id="SVGID_5_" y="-0.8" width="238" height="62.2"/>
	</defs>
	<clipPath id="SVGID_6_">
		<use xlink:href="#SVGID_5_"  overflow="visible"/>
	</clipPath>
	<path clip-path="url(#SVGID_6_)" fill="none" stroke="#FFFDFD" stroke-width="1.636" d="M42,49.2c0.6,5.1-3,9.8-8.1,10.4
		c-5.1,0.6-9.8-3-10.4-8.1c-0.6-5.1,3-9.8,8.1-10.4C36.7,40.5,41.4,44.1,42,49.2"/>
</g>
</svg>
